<?xml version="1.0" encoding="UTF-8" ?>
<!DOCTYPE svg PUBLIC "-//W3C//DTD SVG 1.1//EN" "http://www.w3.org/Graphics/SVG/1.1/DTD/svg11.dtd">
<svg width="100pt" height="100pt" viewBox="0 0 100 100" version="1.1" xmlns="http://www.w3.org/2000/svg">
<circle cx="50" cy="50" r="49" fill="#c262a6" />
<path fill="#ffffff" transform="translate(50.100000, 49.900000) scale(1, -1) translate(-50.100000, -49.900000) translate(15.600000, 35.400000)" d="M22,26.9 C24.9,25 25,24 22.4,21.4 C20.6,19.6 20.1,19.5 18.1,20.7 C15.7,22.2 15.1,22.2 11.8,21.1 C8.1,19.8 7.2,12.8 10.3,10 C11.9,8.5 13.3,8.3 17.3,8.9 C21.6,9.5 22.4,9.3 23.3,7.5 C25,4.4 24.6,3.4 20.9,1.8 C14.1,-1 8,0.5 3,6.4 C0.9,9 0.4,10.6 0.4,14.9 C0.4,19.5 0.9,20.8 3.5,23.9 C8.3,29.4 16.3,30.7 22,26.9 L22,26.9 Z M41.9,28 C45.7,26.4 46.5,23.6 43.9,21.4 C42.7,20.4 41.8,20.4 39.8,21.3 C36.5,22.8 35.4,22.7 35.4,21 C35.4,20.3 36.7,19.1 38.4,18.4 C43.1,16.4 46.4,12.6 46.4,8.9 C46.4,2.3 37.3,-1.8 30.4,1.7 C27.4,3.2 26.9,5.3 28.8,7.9 C30.1,9.6 30.6,9.7 32.3,8.7 C35,7 38.7,7 38.2,8.7 C37.9,9.3 36.2,10.9 34.3,12.1 C28.6,15.8 27.4,17.2 27.4,20.8 C27.4,23.4 28.1,24.9 30.5,26.8 C34,29.7 36.9,30 41.9,28 L41.9,28 Z M64.9,28 C68.7,26.4 69.5,23.6 66.9,21.4 C65.7,20.4 64.8,20.4 62.8,21.3 C59.5,22.8 58.4,22.7 58.4,21 C58.4,20.3 59.7,19.1 61.4,18.4 C66.1,16.4 69.4,12.6 69.4,8.9 C69.4,2.3 60.3,-1.8 53.4,1.7 C50.4,3.2 49.9,5.3 51.8,7.9 C53.1,9.6 53.6,9.7 55.3,8.7 C58,7 61.7,7 61.2,8.7 C60.9,9.3 59.2,10.9 57.3,12.1 C51.6,15.8 50.4,17.2 50.4,20.8 C50.4,23.4 51.1,24.9 53.5,26.8 C57,29.7 59.9,30 64.9,28 L64.9,28 Z" />
</svg>
