<svg xmlns="http://www.w3.org/2000/svg" width="100" height="100" viewBox="0 0 100 100">
    <circle fill="#d17600" cx="50" cy="50" r="50"/>
    <path fill="#fff" d="M37.746 35.421v5.93c-2.893-2.421-5.887-3.631-8.98-3.631-3.409 0-6.281 1.225-8.615 3.674-2.349 2.435-3.523 5.414-3.523 8.938 0 3.48 1.174 6.417 3.523 8.809s5.228 3.588 8.637 3.588c1.762 0 3.258-.286 4.49-.859a12.95 12.95 0 0 0 2.138-1.16c.738-.487 1.515-1.074 2.331-1.762v6.037c-2.865 1.618-5.872 2.428-9.023 2.428-4.741 0-8.787-1.654-12.139-4.963-3.337-3.337-5.006-7.362-5.006-12.074 0-4.225 1.396-7.992 4.189-11.301 3.438-4.053 7.885-6.08 13.342-6.08 2.979 0 5.858.809 8.637 2.428h0zm23.522 3.158l-4.061 2.406c-.759-1.318-1.482-2.177-2.17-2.578-.716-.458-1.64-.687-2.771-.687-1.389 0-2.542.394-3.459 1.182-.917.773-1.375 1.747-1.375 2.922 0 1.618 1.203 2.922 3.609 3.91l3.309 1.354c2.693 1.089 4.662 2.417 5.908 3.985s1.869 3.491 1.869 5.769c0 3.051-1.017 5.572-3.051 7.563-2.048 2.005-4.59 3.008-7.627 3.008-2.879 0-5.257-.852-7.133-2.557-1.848-1.704-3.001-4.104-3.459-7.197l5.07-1.117c.229 1.948.63 3.294 1.203 4.039 1.031 1.432 2.535 2.148 4.512 2.148 1.561 0 2.857-.523 3.889-1.568s1.547-2.37 1.547-3.975c0-.645-.09-1.235-.269-1.772s-.458-1.031-.838-1.482-.87-.874-1.472-1.268-1.318-.77-2.148-1.128l-3.201-1.332c-4.54-1.919-6.811-4.727-6.811-8.422 0-2.492.952-4.576 2.857-6.252 1.905-1.69 4.275-2.535 7.111-2.535 3.824 0 6.811 1.862 8.959 5.586h0zm24.102 0l-4.061 2.406c-.759-1.318-1.482-2.177-2.17-2.578-.716-.458-1.64-.687-2.771-.687-1.389 0-2.542.394-3.459 1.182-.917.773-1.375 1.747-1.375 2.922 0 1.618 1.203 2.922 3.609 3.91l3.309 1.354c2.693 1.089 4.662 2.417 5.908 3.985s1.869 3.491 1.869 5.769c0 3.051-1.017 5.572-3.051 7.563-2.048 2.005-4.59 3.008-7.627 3.008-2.879 0-5.257-.852-7.133-2.557-1.848-1.704-3.001-4.104-3.459-7.197l5.07-1.117c.229 1.948.63 3.294 1.203 4.039 1.031 1.432 2.535 2.148 4.512 2.148 1.561 0 2.857-.523 3.889-1.568s1.547-2.37 1.547-3.975c0-.645-.09-1.235-.269-1.772s-.458-1.031-.838-1.482-.87-.874-1.472-1.268-1.318-.77-2.148-1.128l-3.201-1.332c-4.54-1.919-6.811-4.727-6.811-8.422 0-2.492.952-4.576 2.857-6.252 1.905-1.69 4.275-2.535 7.111-2.535 3.824 0 6.811 1.862 8.959 5.586h0z"/>
</svg>
